<?xml version="1.0" encoding="UTF-8" standalone="no"?>
<svg
   xmlns:dc="http://purl.org/dc/elements/1.1/"
   xmlns:cc="http://creativecommons.org/ns#"
   xmlns:rdf="http://www.w3.org/1999/02/22-rdf-syntax-ns#"
   xmlns:svg="http://www.w3.org/2000/svg"
   xmlns="http://www.w3.org/2000/svg"
   xmlns:sodipodi="http://sodipodi.sourceforge.net/DTD/sodipodi-0.dtd"
   xmlns:inkscape="http://www.inkscape.org/namespaces/inkscape"
   version="1.1"
   id="svg2"
   xml:space="preserve"
   width="514.01331"
   height="302.35999"
   viewBox="0 0 514.01331 302.35999"
   sodipodi:docname="blue pink 3.eps"><metadata
     id="metadata8"><rdf:RDF><cc:Work
         rdf:about=""><dc:format>image/svg+xml</dc:format><dc:type
           rdf:resource="http://purl.org/dc/dcmitype/StillImage" /></cc:Work></rdf:RDF></metadata><defs
     id="defs6"><clipPath
       clipPathUnits="userSpaceOnUse"
       id="clipPath20"><path
         d="m 0,11.7773 h 3840.13 v 2255.94 H 0 Z"
         id="path18" /></clipPath><clipPath
       clipPathUnits="userSpaceOnUse"
       id="clipPath100"><path
         d="M 0,2268 H 3844 V 0 H 0 Z"
         clip-rule="evenodd"
         id="path98" /></clipPath></defs><sodipodi:namedview
     pagecolor="#ffffff"
     bordercolor="#666666"
     borderopacity="1"
     objecttolerance="10"
     gridtolerance="10"
     guidetolerance="10"
     inkscape:pageopacity="0"
     inkscape:pageshadow="2"
     inkscape:window-width="640"
     inkscape:window-height="480"
     id="namedview4" /><g
     id="g10"
     inkscape:groupmode="layer"
     inkscape:label="ink_ext_XXXXXX"
     transform="matrix(1.3333333,0,0,-1.3333333,0,302.36)"><g
       id="g12"
       transform="scale(0.1)"><g
         id="g14"><g
           id="g16"
           clip-path="url(#clipPath20)"><path
             d="M 3819.46,2149.55 3664.56,726.09 C 3650.9,578.801 3526.78,485.223 3385.68,485.223 H 528.395 c -155.051,0 -281.911,126.859 -281.911,281.906 v 766.561 c 0,134.81 84.508,253.62 222.86,275.59 l 3250.526,437.44 c 61.45,8.21 106.29,-35.51 99.59,-97.17"
             style="fill:#c4045f;fill-opacity:1;fill-rule:nonzero;stroke:none"
             id="path22" /><path
             d="m 3385.68,465.227 c 159.21,0 284.87,108.929 298.77,258.699 l 154.89,1423.464 c 3.63,33.34 -5.48,64.08 -25.63,86.54 -19.54,21.78 -47.67,33.78 -79.21,33.78 -5.68,0 -11.48,-0.4 -17.3,-1.18 L 466.203,1829.04 C 325.063,1806.61 226.484,1685.16 226.484,1533.68 V 767.137 c 0,-166.481 135.438,-301.91 301.911,-301.91 z m 0,20 H 528.395 c -155.051,0 -281.911,126.859 -281.911,281.91 v 766.543 c 0,134.81 84.508,253.62 222.86,275.61 l 3250.536,437.42 c 4.98,0.67 9.86,1 14.62,1 53.77,0 91.11,-41.51 84.96,-98.16 L 3664.56,726.086 C 3650.89,578.797 3526.79,485.227 3385.68,485.227"
             style="fill:#ffffff;fill-opacity:1;fill-rule:nonzero;stroke:none"
             id="path24" /><path
             d="M 3592.98,1696.1 3438.08,272.641 C 3424.42,125.352 3300.3,31.7695 3159.2,31.7695 H 301.91 C 146.859,31.7695 20,158.629 20,313.68 v 766.56 c 0,134.81 84.508,253.62 222.859,275.59 l 3250.531,437.44 c 61.45,8.21 106.29,-35.51 99.59,-97.17"
             style="fill:#5784cc;fill-opacity:1;fill-rule:nonzero;stroke:none"
             id="path26" /><path
             d="m 3159.2,11.7734 c 159.21,0 284.87,108.9296 298.76,258.6996 l 154.9,1423.467 c 3.63,33.34 -5.48,64.08 -25.63,86.54 -19.54,21.78 -47.67,33.78 -79.21,33.78 -5.68,0 -11.49,-0.4 -17.3,-1.18 L 239.719,1375.58 C 98.5781,1353.16 0,1231.71 0,1080.23 V 313.684 C 0,147.203 135.438,11.7734 301.91,11.7734 Z m 0,20 H 301.91 C 146.859,31.7734 20,158.633 20,313.684 v 766.546 c 0,134.81 84.508,253.62 222.859,275.6 l 3250.531,437.43 c 4.99,0.67 9.87,1 14.63,1 53.77,0 91.11,-41.51 84.96,-98.16 L 3438.08,272.633 C 3424.41,125.344 3300.3,31.7734 3159.2,31.7734"
             style="fill:#ffffff;fill-opacity:1;fill-rule:nonzero;stroke:none"
             id="path28" /><path
             d="m 496.863,643.723 c -148.367,0 -269.066,120.718 -269.066,269.078 0,148.379 120.699,269.079 269.066,269.079 148.371,0 269.09,-120.7 269.09,-269.079 0,-148.36 -120.719,-269.078 -269.09,-269.078 m 0,558.277 c -159.457,0 -289.187,-129.74 -289.187,-289.199 0,-159.469 129.73,-289.192 289.187,-289.192 159.481,0 289.203,129.723 289.203,289.192 0,159.459 -129.722,289.199 -289.203,289.199"
             style="fill:#ffffff;fill-opacity:1;fill-rule:nonzero;stroke:none"
             id="path30" /><path
             d="m 734.477,905.102 c 0,-77.508 -43.09,-121.27 -89.758,-121.27 -43.051,0 -73.93,23.652 -100.492,50.941 4.293,6.45 10.761,12.918 17.941,12.918 7.191,0 15.07,-5.039 28.711,-15.82 17.219,-13.598 33.73,-21.508 54.59,-21.508 36.609,0 52.347,40.91 52.347,94.739 0,57.421 -15.039,95.428 -53.82,95.428 -17.226,0 -29.406,-5.007 -40.18,-15.768 -17.226,-15.77 -22.976,-20.078 -30.859,-20.078 -5.758,0 -9.348,3.578 -10.789,5.711 12.941,12.929 31.602,40.185 31.602,75.385 0,40.16 -33.743,68.16 -96.922,68.16 -63.16,0 -96.891,-28 -96.891,-68.16 0,-35.2 18.66,-62.456 31.582,-75.385 -1.43,-2.133 -5.019,-5.711 -10.781,-5.711 -7.871,0 -13.629,4.308 -30.86,20.078 -11.468,10.761 -22.96,15.768 -40.191,15.768 -38.769,0 -53.828,-38.007 -53.828,-95.428 0,-53.829 15.769,-94.739 52.379,-94.739 20.832,0 36.629,7.91 54.57,21.508 13.621,10.781 21.52,15.82 28.711,15.82 7.168,0 13.641,-6.468 17.938,-12.918 -27.258,-27.289 -57.411,-50.941 -100.5,-50.941 -46.649,0 -89.719,43.762 -89.719,121.27 0,78.961 43.801,121.278 87.582,121.278 14.348,0 27.976,-6.46 37.316,-15.07 l 0.731,0.73 c -3.578,7.17 -10.77,20.8 -10.77,43.04 0,53.11 53.852,93.32 122.731,93.32 68.941,0 122.039,-40.21 122.039,-93.32 0,-22.24 -5.758,-35.87 -10.078,-43.04 l 0.757,-0.73 c 9.321,8.61 22.973,15.07 37.301,15.07 43.789,0 87.61,-42.317 87.61,-121.278"
             style="fill:#ffffff;fill-opacity:1;fill-rule:nonzero;stroke:none"
             id="path32" /><path
             d="m 519.098,1007.01 c -1.422,-0.71 -2.153,-2.86 -1.422,-5.02 l 10.043,-30.865 c 0.75,-1.437 0,-2.137 -1.422,-0.699 l -25.852,18.652 c -2.168,1.43 -3.597,1.43 -5.726,0 l -26.59,-18.652 c -2.152,-1.438 -2.152,0 -1.434,1.41 l 10.063,30.154 c 0.719,1.44 0.719,3.57 -0.711,5.02 l -26.559,19.37 c -1.429,0.75 -0.73,1.45 0.707,1.45 h 32.301 c 1.43,0 2.871,0.72 3.602,2.87 l 10.039,30.85 c 0.711,2.16 1.429,2.16 2.14,0 l 10.059,-30.85 c 0.742,-1.44 2.16,-2.87 4.312,-2.87 h 32.29 c 1.449,0 2.16,-0.7 0.73,-1.45"
             style="fill:#ffffff;fill-opacity:1;fill-rule:nonzero;stroke:none"
             id="path34" /><path
             d="m 520.543,815.375 c 7.918,-21.508 15.801,-40.18 15.801,-67.457 0,-45.91 -35.891,-79.66 -66.051,-79.66 -8.609,0 -15.781,3.578 -18.66,5.75 30.859,23.699 48.09,50.23 48.09,89 0,24.398 -7.172,50.23 -15.063,72.48 -4.316,12.918 -10.777,34.438 -10.777,54.547 0,10.731 5.027,24.403 9.328,31.582 5.75,8.598 15.082,18.649 19.391,18.649 2.871,0 2.14,-3.578 -0.719,-9.321 -2.16,-5.738 -5.742,-16.507 -5.742,-28.699 0,-28.75 10.761,-52.398 24.402,-86.871"
             style="fill:#ffffff;fill-opacity:1;fill-rule:nonzero;stroke:none"
             id="path36" /><path
             d="m 1054.16,313.582 c -100.621,0 -171.519,71.457 -171.519,198.359 0,120.637 70.898,195.547 174.919,195.547 43.45,0 66.89,-7.429 90.33,-18.898 v -65.731 c -21.15,14.891 -50.29,26.879 -88.58,26.879 -59.47,0 -104.08,-50.328 -104.08,-137.797 0,-88.589 44.61,-140.609 95.5,-140.609 17.12,0 29.72,2.289 38.85,5.699 v 102.34 c 0,28.59 19.43,50.879 54.9,50.879 h 13.15 V 333.039 c -19.43,-10.309 -56.62,-19.457 -103.47,-19.457"
             style="fill:#ffffff;fill-opacity:1;fill-rule:nonzero;stroke:none"
             id="path38" /><path
             d="m 1210.39,322.164 v 230.961 c 0,32.578 34.86,46.301 60.59,46.301 h 6.31 V 322.164 Z m 36.02,308.699 c -23.43,0 -36.02,16.012 -36.02,33.742 0,17.7 12.59,33.7 36.02,33.7 23.45,0 36.03,-16 36.03,-33.7 0,-17.73 -12.58,-33.742 -36.03,-33.742"
             style="fill:#ffffff;fill-opacity:1;fill-rule:nonzero;stroke:none"
             id="path40" /><path
             d="m 1445.52,537.707 c -26.25,0 -48.6,-21.16 -48.6,-62.91 V 322.168 h -66.88 v 230.937 c 0,32.622 34.33,46.313 60.04,46.313 h 6.27 l 0.57,-38.883 c 10.89,21.16 33.75,40.59 59.47,40.59 8.59,0 17.72,-1.707 23.44,-3.98 v -68.61 c -8,4.563 -20.57,9.172 -34.31,9.172"
             style="fill:#ffffff;fill-opacity:1;fill-rule:nonzero;stroke:none"
             id="path42" /><path
             d="m 1516.63,322.164 v 360.731 c 0,32.578 34.9,46.289 60.62,46.289 h 6.27 v -407.02"
             style="fill:#ffffff;fill-opacity:1;fill-rule:nonzero;stroke:none"
             id="path44" /><path
             d="m 1790.3,530.824 c -5.15,7.434 -18.87,17.711 -37.71,17.711 -36.61,0 -58.33,-31.437 -58.33,-90.32 0,-61.168 21.72,-86.328 52.03,-86.328 25.71,0 44.01,21.168 44.01,53.191 z m -51.46,-324.136 c -42.84,0 -75.45,9.718 -91.44,17.128 v 57.192 c 15.99,-8.012 49.13,-19.43 83.45,-19.43 40.04,0 59.45,22.289 59.45,60.59 v 24 c -13.16,-14.262 -26.31,-26.883 -58.33,-26.883 -59.99,0 -105.19,44.043 -105.19,139.5 0,84.621 44.03,142.371 116.64,142.371 31.46,0 48,-10.879 61.15,-25.16 8.02,15.43 21.16,23.422 46.35,23.422 h 6.26 v -282.41 c 0,-69.742 -50.86,-110.32 -118.34,-110.32"
             style="fill:#ffffff;fill-opacity:1;fill-rule:nonzero;stroke:none"
             id="path46" /><path
             d="m 2135.77,322.164 h -61.71 l -1.72,28.559 c -10.86,-20.559 -34.32,-37.137 -73.77,-37.137 -60.56,0 -88.62,37.137 -88.62,93.199 v 146.34 c 0,32.578 34.89,46.301 60.61,46.301 h 6.32 V 413.625 c 0,-23.449 10.29,-45.16 39.99,-45.16 29.17,0 52.03,28.578 52.03,65.191 v 119.469 c 0,32.578 34.88,46.301 60.61,46.301 h 6.26"
             style="fill:#ffffff;fill-opacity:1;fill-rule:nonzero;stroke:none"
             id="path48" /><path
             d="m 2188.6,322.164 v 230.961 c 0,32.578 34.85,46.301 60.66,46.301 h 6.29 V 322.164 Z m 36,308.699 c -23.42,0 -36,16.012 -36,33.742 0,17.7 12.58,33.7 36,33.7 23.53,0 36.09,-16 36.09,-33.7 0,-17.73 -12.56,-33.742 -36.09,-33.742"
             style="fill:#ffffff;fill-opacity:1;fill-rule:nonzero;stroke:none"
             id="path50" /><path
             d="m 2467.49,532.531 c -9.72,8.61 -21.75,15.989 -43.45,15.989 -34.89,0 -57.77,-30.27 -57.77,-92.579 0,-60.621 22.88,-87.472 52.05,-87.472 31.44,0 49.17,24.562 49.17,56.601 z m 4.58,-210.371 -2.29,30.301 c -12.58,-21.141 -30.89,-37.152 -65.74,-37.152 -58.91,0 -105.21,46.863 -105.21,140.062 0,90.859 44.6,145.777 117.76,145.777 26.88,0 41.79,-5.726 50.9,-10.867 v 92.641 c 0,32.547 34.88,46.269 60.56,46.269 h 6.31 V 322.16"
             style="fill:#ffffff;fill-opacity:1;fill-rule:nonzero;stroke:none"
             id="path52" /><path
             d="m 2587.16,322.164 v 230.961 c 0,32.578 34.88,46.301 60.61,46.301 h 6.26 V 322.164 Z m 35.99,308.699 c -23.4,0 -35.99,16.012 -35.99,33.742 0,17.7 12.59,33.7 35.99,33.7 23.45,0 36,-16 36,-33.7 0,-17.73 -12.55,-33.742 -36,-33.742"
             style="fill:#ffffff;fill-opacity:1;fill-rule:nonzero;stroke:none"
             id="path54" /><path
             d="m 2865.74,322.164 v 178.961 c 0,23.41 -10.27,45.129 -39.99,45.129 -33.77,0 -52.05,-25.738 -52.05,-61.16 v -162.93 h -66.91 v 230.961 c 0,32.578 34.32,46.301 60.08,46.301 h 6.26 l 0.57,-28.024 c 14.29,14.871 34.33,29.75 71.46,29.75 60.57,0 87.46,-37.168 87.46,-93.187 V 322.164"
             style="fill:#ffffff;fill-opacity:1;fill-rule:nonzero;stroke:none"
             id="path56" /><path
             d="m 3139.41,530.824 c -5.16,7.434 -18.89,17.711 -37.73,17.711 -36.61,0 -58.34,-31.437 -58.34,-90.32 0,-61.168 21.73,-86.328 52.04,-86.328 25.75,0 44.03,21.168 44.03,53.191 z m -51.46,-324.136 c -42.9,0 -75.46,9.718 -91.49,17.128 v 57.192 c 16.03,-8.012 49.17,-19.43 83.5,-19.43 40.03,0 59.45,22.289 59.45,60.59 v 24 c -13.17,-14.262 -26.33,-26.883 -58.35,-26.883 -59.98,0 -105.18,44.043 -105.18,139.5 0,84.621 44.01,142.371 116.64,142.371 31.45,0 48,-10.879 61.16,-25.16 8,15.43 21.16,23.422 46.32,23.422 h 6.29 v -282.41 c 0,-69.742 -50.88,-110.32 -118.34,-110.32"
             style="fill:#ffffff;fill-opacity:1;fill-rule:nonzero;stroke:none"
             id="path58" /><path
             d="M 984.199,886.391 H 974.09 l -15.289,86.011 -45.711,-86.011 h -10.102 l -19.91,142.869 h 25.5 l 10.68,-85.428 44.441,85.428 h 10.879 l 13.082,-84.858 41.18,84.858 h 27.13"
             style="fill:#dde1f4;fill-opacity:1;fill-rule:nonzero;stroke:none"
             id="path60" /><path
             d="m 1160.93,1007.32 h -64.94 l -5.87,-32.414 h 46.56 l -3.94,-20.972 h -46.57 l -7.88,-43.688 h 63.88 l -4.14,-21.93 h -89.67 l 25.98,140.954 h 90.73"
             style="fill:#dde1f4;fill-opacity:1;fill-rule:nonzero;stroke:none"
             id="path62" /><path
             d="m 1271.28,1008.67 -17.12,-97.943 c 2.82,-0.25 5.39,-0.391 7.7,-0.391 17.18,0 30.85,6.07 40.97,18.191 10.15,12.129 15.21,27.68 15.21,46.661 0,10.398 -3.49,18.73 -10.49,25.022 -6.99,6.29 -15.96,9.42 -26.93,9.42 -3.08,0 -6.2,-0.31 -9.34,-0.96 m -12.5,-120.354 h -34.06 l 25.69,140.654 c 9.36,1.68 18.15,2.51 26.36,2.51 21.48,0 38.09,-4.91 49.84,-14.72 11.74,-9.81 17.6,-24.033 17.6,-42.623 0,-26.11 -7.76,-46.938 -23.28,-62.5 -15.52,-15.539 -36.24,-23.321 -62.15,-23.321"
             style="fill:#dde1f4;fill-opacity:1;fill-rule:nonzero;stroke:none"
             id="path64" /><path
             d="m 1376.82,888.316 h -25.11 l 25.89,140.954 h 25.2 z"
             style="fill:#dde1f4;fill-opacity:1;fill-rule:nonzero;stroke:none"
             id="path66" /><path
             d="m 1490.45,1001.46 c -7.44,5.45 -15,8.17 -22.71,8.17 -15.45,0 -23.18,-5.83 -23.18,-17.505 0,-4.937 4.1,-10.84 12.31,-17.699 l 14.53,-12.321 c 4.48,-3.851 7.6,-6.66 9.33,-8.41 1.74,-1.769 3.56,-4.218 5.49,-7.371 1.92,-3.136 3.36,-6.32 4.32,-9.519 0.96,-3.207 1.45,-6.481 1.45,-9.809 0,-12.902 -4.83,-22.969 -14.48,-30.211 -9.65,-7.25 -22.18,-10.879 -37.57,-10.879 -12.63,0 -24.57,2.731 -35.79,8.18 l 8.08,24.73 c 8.6,-6.48 18.57,-9.711 29.92,-9.711 6.87,0 12.56,1.45 17.07,4.372 4.53,2.918 6.79,7.07 6.79,12.461 0,5.316 -4.1,11.179 -12.31,17.597 l -15.11,12.031 c -4.62,3.719 -7.74,6.411 -9.38,8.079 -1.63,1.679 -3.35,4 -5.14,6.98 -1.8,2.98 -3.15,6.039 -4.05,9.18 -0.89,3.14 -1.35,6.39 -1.35,9.722 0,12.953 4.3,23.223 12.9,30.793 8.59,7.57 19.85,11.34 33.77,11.34 4.62,0 10.52,-0.52 17.7,-1.59 7.18,-1.05 12.22,-2.25 15.11,-3.61"
             style="fill:#dde1f4;fill-opacity:1;fill-rule:nonzero;stroke:none"
             id="path68" /><path
             d="m 1610.9,1002.13 c -7.31,5.2 -15.42,7.79 -24.34,7.79 -14.43,0 -26.54,-6.87 -36.32,-20.631 -9.78,-13.762 -14.67,-29.012 -14.67,-45.75 0,-10.84 2.65,-19.5 7.99,-25.969 5.32,-6.48 12.73,-9.722 22.22,-9.722 14.76,0 26.33,4.011 34.73,12.019 l -0.48,-22.027 c -9.1,-7.961 -22.23,-11.93 -39.35,-11.93 -15.26,0 -27.58,5.02 -36.94,15.059 -9.37,10.039 -14.05,23.07 -14.05,39.101 0,25.918 7.2,47.66 21.6,65.23 14.4,17.58 33.21,26.36 56.43,26.36 11.35,0 21.42,-1.86 30.21,-5.57"
             style="fill:#dde1f4;fill-opacity:1;fill-rule:nonzero;stroke:none"
             id="path70" /><path
             d="m 1655.06,943.344 c 0,-10.84 2.16,-19.457 6.45,-25.879 4.3,-6.41 10.58,-9.621 18.86,-9.621 15.26,0 27.32,6.871 36.17,20.59 8.85,13.722 13.28,30.109 13.28,49.16 0,21.562 -9.5,32.316 -28.48,32.316 -13.34,0 -24.39,-7.03 -33.15,-21.144 -8.75,-14.121 -13.13,-29.262 -13.13,-45.422 m -25.98,-2.59 c 0,25.07 6.85,46.512 20.55,64.316 13.69,17.79 31.5,26.68 53.44,26.68 16.87,0 29.86,-4.46 38.97,-13.41 9.1,-8.95 13.66,-21.887 13.66,-38.824 0,-27.77 -7,-50.313 -20.98,-67.633 -13.99,-17.317 -33.13,-25.977 -57.44,-25.977 -14.87,0 -26.63,5.028 -35.25,15.059 -8.64,10.039 -12.95,23.289 -12.95,39.789"
             style="fill:#dde1f4;fill-opacity:1;fill-rule:nonzero;stroke:none"
             id="path72" /><path
             d="m 1822.75,886.391 h -13.66 l -28.28,142.869 h 26.75 l 16.83,-93.51 49.46,93.51 h 27.99"
             style="fill:#dde1f4;fill-opacity:1;fill-rule:nonzero;stroke:none"
             id="path74" /><path
             d="m 2009.11,1007.32 h -64.95 l -5.86,-32.414 h 46.57 l -3.96,-20.972 h -46.55 l -7.9,-43.688 h 63.9 l -4.15,-21.93 h -89.66 l 25.98,140.954 h 90.72"
             style="fill:#dde1f4;fill-opacity:1;fill-rule:nonzero;stroke:none"
             id="path76" /><path
             d="m 2061.93,1007.61 -7.21,-39.438 c 3.78,-0.391 7.15,-0.578 10.1,-0.578 24.24,0 36.36,7.699 36.36,23.09 0,6.48 -2.32,11.076 -6.97,13.796 -4.65,2.73 -12.37,4.09 -23.14,4.09 -0.89,0 -3.94,-0.32 -9.14,-0.96 m 28.77,-56.856 31.45,-62.441 h -28.18 l -26.94,58.3 c -4.36,0.071 -9.72,0.321 -16.07,0.782 l -10.87,-59.082 h -25.78 l 25.78,140.947 c 18.73,0.96 31.01,1.44 36.85,1.44 15.2,0 27.21,-2.93 36.03,-8.8 8.82,-5.87 13.23,-14.35 13.23,-25.447 0,-11.289 -3.22,-21.082 -9.67,-29.39 -6.45,-8.301 -15.05,-13.739 -25.83,-16.309"
             style="fill:#dde1f4;fill-opacity:1;fill-rule:nonzero;stroke:none"
             id="path78" /><path
             d="m 2154.2,848.488 -7.41,9.707 c 10.19,7.512 15.29,15.942 15.29,25.313 0,3.59 -1.86,6.828 -5.59,9.719 -3.7,2.89 -5.56,5.992 -5.56,9.332 0,4.16 1.7,7.597 5.09,10.289 3.41,2.699 7.44,4.039 12.12,4.039 4.56,0 8.54,-1.86 11.92,-5.578 3.41,-3.723 5.12,-7.981 5.12,-12.801 0,-19.371 -10.32,-36.039 -30.98,-50.02"
             style="fill:#dde1f4;fill-opacity:1;fill-rule:nonzero;stroke:none"
             id="path80" /><path
             d="m 2386.35,886.391 h -10.1 l -15.3,86.011 -45.69,-86.011 h -10.11 l -19.92,142.869 h 25.5 l 10.68,-85.428 44.44,85.428 h 10.88 l 13.08,-84.858 41.18,84.858 h 27.13"
             style="fill:#dde1f4;fill-opacity:1;fill-rule:nonzero;stroke:none"
             id="path82" /><path
             d="m 2563.09,1007.32 h -64.95 l -5.87,-32.414 h 46.57 l -3.95,-20.972 h -46.57 l -7.88,-43.688 h 63.88 l -4.14,-21.93 h -89.66 l 25.98,140.954 h 90.73"
             style="fill:#dde1f4;fill-opacity:1;fill-rule:nonzero;stroke:none"
             id="path84" /><path
             d="m 2738.56,901.105 c -14.49,-10.132 -32.22,-15.203 -53.2,-15.203 -16.16,0 -29.29,5.18 -39.39,15.543 -10.11,10.36 -15.16,23.5 -15.16,39.399 0,27.898 7.69,50.019 23.04,66.336 15.37,16.32 36.3,24.48 62.78,24.48 14.36,0 25.05,-3.21 32.03,-9.62 l -7.5,-20.88 c -9.42,5.72 -18.82,8.57 -28.19,8.57 -16.93,0 -30.53,-6.21 -40.8,-18.617 -10.26,-12.41 -15.38,-27.949 -15.38,-46.609 0,-11.551 3.18,-20.539 9.53,-26.981 6.34,-6.449 15.04,-9.679 26.06,-9.679 9.18,0 17.2,2.531 24.06,7.601 l 5.1,27.899 h -19.53 l 3.85,20.98 h 44.35"
             style="fill:#dde1f4;fill-opacity:1;fill-rule:nonzero;stroke:none"
             id="path86" /><path
             d="m 2808.51,1007.61 -7.22,-39.438 c 3.79,-0.391 7.15,-0.578 10.11,-0.578 24.24,0 36.36,7.699 36.36,23.09 0,6.48 -2.33,11.076 -6.97,13.796 -4.64,2.73 -12.37,4.09 -23.14,4.09 -0.9,0 -3.94,-0.32 -9.14,-0.96 m 28.76,-56.856 31.46,-62.441 h -28.18 l -26.94,58.3 c -4.36,0.071 -9.72,0.321 -16.07,0.782 l -10.88,-59.082 h -25.78 l 25.78,140.947 c 18.74,0.96 31.02,1.44 36.86,1.44 15.2,0 27.21,-2.93 36.04,-8.8 8.81,-5.87 13.22,-14.35 13.22,-25.447 0,-11.289 -3.22,-21.082 -9.67,-29.39 -6.45,-8.301 -15.05,-13.739 -25.84,-16.309"
             style="fill:#dde1f4;fill-opacity:1;fill-rule:nonzero;stroke:none"
             id="path88" /><path
             d="m 2914.35,943.344 c 0,-10.84 2.13,-19.457 6.44,-25.879 4.3,-6.41 10.58,-9.621 18.85,-9.621 15.27,0 27.32,6.871 36.18,20.59 8.86,13.722 13.3,30.109 13.3,49.16 0,21.562 -9.51,32.316 -28.51,32.316 -13.33,0 -24.38,-7.03 -33.13,-21.144 -8.77,-14.121 -13.13,-29.262 -13.13,-45.422 m -25.99,-2.59 c 0,25.07 6.85,46.512 20.55,64.316 13.7,17.79 31.52,26.68 53.45,26.68 16.85,0 29.84,-4.46 38.94,-13.41 9.11,-8.95 13.68,-21.887 13.68,-38.824 0,-27.77 -6.98,-50.313 -20.97,-67.633 -13.99,-17.317 -33.13,-25.977 -57.44,-25.977 -14.88,0 -26.63,5.028 -35.27,15.059 -8.61,10.039 -12.94,23.289 -12.94,39.789"
             style="fill:#dde1f4;fill-opacity:1;fill-rule:nonzero;stroke:none"
             id="path90" /><path
             d="m 3139.56,886.391 h -10.1 l -15.29,86.011 -45.69,-86.011 h -10.11 l -19.91,142.869 h 25.48 l 10.69,-85.428 44.45,85.428 h 10.86 l 13.1,-84.858 41.17,84.858 h 27.14"
             style="fill:#dde1f4;fill-opacity:1;fill-rule:nonzero;stroke:none"
             id="path92" /></g></g><g
         id="g94"><g
           id="g96"
           clip-path="url(#clipPath100)"><g
             id="g102"
             transform="scale(10)"><text
               transform="matrix(0.990268,0.139173,0.139173,-0.990268,46.25,148.862)"
               style="font-variant:normal;font-size:29px;font-family:'Trebuchet MS';-inkscape-font-specification:Trebuchet_MS_000-0;writing-mode:lr-tb;fill:#ffffff;fill-opacity:1;fill-rule:nonzero;stroke:none"
               id="text142"><tspan
                 x="0"
                 y="0"
                 id="tspan104">G</tspan><tspan
                 x="18.923597"
                 y="0.0036938698"
                 id="tspan106">o</tspan><tspan
                 x="34.768497"
                 y="-0.0011695799"
                 id="tspan108">o</tspan><tspan
                 x="50.611996"
                 y="0.0038663896"
                 id="tspan110">l</tspan><tspan
                 x="59.206184"
                 y="-9.2399991e-05"
                 id="tspan112">e</tspan><tspan
                 x="74.524986 82.573296"
                 y="0.0019010898"
                 sodipodi:role="line"
                 id="tspan114"> &amp;</tspan><tspan
                 x="102.36528"
                 y="0.0065586097"
                 id="tspan116"> </tspan><tspan
                 x="110.42349"
                 y="0.0080636693"
                 id="tspan118">H</tspan><tspan
                 x="129.40929"
                 y="0.00030790997"
                 id="tspan120">o</tspan><tspan
                 x="145.25279"
                 y="0.0053447294"
                 id="tspan122">w</tspan><tspan
                 x="166.99498"
                 y="0.0012255599"
                 id="tspan124">d</tspan><tspan
                 x="183.51588"
                 y="0.00047917996"
                 id="tspan126">e</tspan><tspan
                 x="198.83469"
                 y="0.0024743697"
                 id="tspan128">n</tspan><tspan
                 x="214.44618"
                 y="0.0051997798"
                 id="tspan130">s</tspan><tspan
                 x="227.07938"
                 y="0.0033874698"
                 id="tspan132">h</tspan><tspan
                 x="242.69089"
                 y="0.0061249696"
                 id="tspan134">i</tspan><tspan
                 x="251.4873"
                 y="0.00028962997"
                 id="tspan136">r</tspan><tspan
                 x="263.75702"
                 y="-0.0021129597"
                 id="tspan138">e</tspan><tspan
                 x="279.7518"
                 y="0.0039975997"
                 id="tspan140"> </tspan></text></g></g></g></g></g></svg>
